<svg xmlns="http://www.w3.org/2000/svg" viewBox="0 0 142.09 26.17"><defs><style>.cls-1{fill:#ee2b69;}</style></defs><title>Recurso 1</title><g id="Capa_2" data-name="Capa 2"><g id="Capa_1-2" data-name="Capa 1"><path class="cls-1" d="M7,12.31,9.69,5.84H14l-5,10.07v5.57H5V15.91L0,5.84H4.34Z"/><path class="cls-1" d="M27.89,16.1A5.83,5.83,0,0,1,27,19a5.51,5.51,0,0,1-2.27,2,7.51,7.51,0,0,1-3.4.71,6.77,6.77,0,0,1-3.62-.92,6,6,0,0,1-2.29-2.66A9.85,9.85,0,0,1,14.64,14v-.63a9.52,9.52,0,0,1,.83-4.14,6.21,6.21,0,0,1,2.31-2.66,6.38,6.38,0,0,1,3.5-.94,7.4,7.4,0,0,1,3.5.75A5.48,5.48,0,0,1,27,8.42a6.53,6.53,0,0,1,.93,2.93h-4a2.62,2.62,0,0,0-.59-1.83,2.72,2.72,0,0,0-2-.6,2.36,2.36,0,0,0-1.44.42A2.52,2.52,0,0,0,19,10.72a9.92,9.92,0,0,0-.27,2.61V14A11.35,11.35,0,0,0,19,16.61,2.38,2.38,0,0,0,19.79,18a2.64,2.64,0,0,0,1.55.41,3.47,3.47,0,0,0,1.37-.24,1.81,1.81,0,0,0,.85-.74,2.67,2.67,0,0,0,.31-1.31Z"/><path d="M31.23,21.48V18.23h3.45a2.75,2.75,0,0,0,2.78-1.9,6.86,6.86,0,0,0,.36-2.4v-.55A6.8,6.8,0,0,0,37.46,11a2.82,2.82,0,0,0-1.08-1.42,3.08,3.08,0,0,0-1.77-.48H31.16V5.84h3.45a7.27,7.27,0,0,1,3.79,1A6.72,6.72,0,0,1,41,9.48a7.92,7.92,0,0,1,.94,3.92v.53A8,8,0,0,1,41,17.85a6.81,6.81,0,0,1-2.57,2.67,7.2,7.2,0,0,1-3.74,1Zm2.33,0h-4V5.84h4Z"/><path d="M45.7,5a2.15,2.15,0,0,1,1.53.54,1.76,1.76,0,0,1,.59,1.39,1.81,1.81,0,0,1-.59,1.4,2.15,2.15,0,0,1-1.53.54,2.19,2.19,0,0,1-1.54-.54,1.84,1.84,0,0,1-.59-1.4,1.79,1.79,0,0,1,.59-1.39A2.19,2.19,0,0,1,45.7,5Zm1.94,16.5H43.75V9.86h3.89Z"/><path d="M53.61,21.48H49.75V9.86h3.61l.25,3.1Zm3.29-7.93-.61-.05-.61,0a3.62,3.62,0,0,0-1.34.21,1.4,1.4,0,0,0-.73.64,2.46,2.46,0,0,0-.21,1.16l-.68-.58a8.82,8.82,0,0,1,.4-2.76,4.27,4.27,0,0,1,1.12-1.84A2.45,2.45,0,0,1,56,9.64l.53,0a2.11,2.11,0,0,1,.49.1Z"/><path d="M63.88,21.69a6.51,6.51,0,0,1-3.29-.78,5.39,5.39,0,0,1-2.07-2.06,5.73,5.73,0,0,1-.71-2.79v-.39a7.14,7.14,0,0,1,.63-3,4.87,4.87,0,0,1,1.88-2.18,5.65,5.65,0,0,1,3.16-.82,5.52,5.52,0,0,1,2.87.7,4.5,4.5,0,0,1,1.83,2,6.71,6.71,0,0,1,.65,3.06V17H59.26V14.52H65v-.31a1.58,1.58,0,0,0-.17-.83,1,1,0,0,0-.55-.47,2.24,2.24,0,0,0-.88-.15,1.42,1.42,0,0,0-1.12.42,2.14,2.14,0,0,0-.51,1.08,7,7,0,0,0-.13,1.41v.39A3,3,0,0,0,62,17.41a2,2,0,0,0,.84.86,2.78,2.78,0,0,0,1.33.3,4.17,4.17,0,0,0,1.42-.25,2.53,2.53,0,0,0,1.21-.87l1.74,2.22a4.65,4.65,0,0,1-1.74,1.39A6.08,6.08,0,0,1,63.88,21.69Z"/><path d="M75.26,21.69a5.58,5.58,0,0,1-3.06-.77,4.88,4.88,0,0,1-1.83-2.11,7.18,7.18,0,0,1-.61-3v-.2a7.4,7.4,0,0,1,.6-3,4.9,4.9,0,0,1,1.83-2.12,5.63,5.63,0,0,1,3-.77,5.79,5.79,0,0,1,2.6.56,4,4,0,0,1,1.76,1.61,4.84,4.84,0,0,1,.61,2.6H76.59a2,2,0,0,0-.14-.83A1.19,1.19,0,0,0,76,13a1.45,1.45,0,0,0-.85-.22,1.26,1.26,0,0,0-1,.38,2.07,2.07,0,0,0-.42,1,10.24,10.24,0,0,0-.09,1.41v.2a12.17,12.17,0,0,0,.08,1.43,2,2,0,0,0,.43,1,1.31,1.31,0,0,0,1,.37,1.9,1.9,0,0,0,.8-.16,1,1,0,0,0,.47-.46,1.48,1.48,0,0,0,.15-.75h3.62a4.16,4.16,0,0,1-.63,2.38,4.48,4.48,0,0,1-1.77,1.56A5.82,5.82,0,0,1,75.26,21.69Z"/><path d="M88,12.65H80.82V9.86H88ZM86.11,7v10.5a1.67,1.67,0,0,0,.1.65.6.6,0,0,0,.34.32,2.12,2.12,0,0,0,.7.1l.5,0a2.22,2.22,0,0,0,.38,0v2.88a5.14,5.14,0,0,1-1,.25,6.44,6.44,0,0,1-1.11.08A5.07,5.07,0,0,1,84,21.32a2.79,2.79,0,0,1-1.28-1.19,4.48,4.48,0,0,1-.44-2.1V7Z"/><path d="M88.62,15.57a6.89,6.89,0,0,1,.65-3,5,5,0,0,1,1.9-2.12,5.85,5.85,0,0,1,3.09-.77,5.91,5.91,0,0,1,3.12.77,4.93,4.93,0,0,1,1.9,2.12,6.89,6.89,0,0,1,.64,3v.2a6.89,6.89,0,0,1-.64,3,4.8,4.8,0,0,1-1.89,2.12,6.74,6.74,0,0,1-6.22,0,4.88,4.88,0,0,1-1.9-2.12,6.89,6.89,0,0,1-.65-3Zm3.88.2a7,7,0,0,0,.14,1.44,1.9,1.9,0,0,0,.54,1,1.82,1.82,0,0,0,2.2,0,1.89,1.89,0,0,0,.53-1,6.37,6.37,0,0,0,.15-1.44v-.2a6.22,6.22,0,0,0-.15-1.41,2,2,0,0,0-.53-1,1.55,1.55,0,0,0-1.12-.38,1.49,1.49,0,0,0-1.09.38,2.07,2.07,0,0,0-.53,1,6.88,6.88,0,0,0-.14,1.41Z"/><path d="M105.33,21.48h-3.87V9.86h3.61l.26,3.1Zm3.28-7.93L108,13.5l-.61,0a3.56,3.56,0,0,0-1.33.21,1.36,1.36,0,0,0-.73.64,2.58,2.58,0,0,0-.22,1.16l-.67-.58a8.84,8.84,0,0,1,.39-2.76A4.27,4.27,0,0,1,106,10.3a2.48,2.48,0,0,1,1.71-.66l.54,0a2.14,2.14,0,0,1,.48.1Z"/><path d="M116.35,9.86h4.15l-4.63,13.33a8,8,0,0,1-.41.95,4,4,0,0,1-.7,1,3.15,3.15,0,0,1-1.12.75,4.14,4.14,0,0,1-1.68.3,4.63,4.63,0,0,1-.58,0,2.65,2.65,0,0,1-.42-.06l-.55-.14V23.07h.44a2.33,2.33,0,0,0,1.2-.22,1.07,1.07,0,0,0,.5-.57l.86-2.2Zm-1.28,7.81.4,4.31-2.58-.14-4.09-12h4.14Z"/><path d="M142,11c.34.57,0,1.34-1.06,2.19S138.5,15.06,137.3,16a3,3,0,0,1-2,1.14,1.45,1.45,0,0,1-1.69-2.05,2.52,2.52,0,0,1,1.38-1.6,17.1,17.1,0,0,1,4.37-2.64C140.64,10.31,141.61,10.44,142,11Z"/><path d="M133.11,4.91a4.48,4.48,0,0,0-1,.82,28.15,28.15,0,0,0-3.37,4.6,4.81,4.81,0,0,0-.44,1.08,1.21,1.21,0,0,0,.48,1.42,1.31,1.31,0,0,0,1.52-.06,3.11,3.11,0,0,0,.94-.9c.46-.69.9-1.4,1.17-1.82.6-1.05,1.06-1.8,1.47-2.58A9.68,9.68,0,0,0,134.49,6a.89.89,0,0,0-.27-1.06A.93.93,0,0,0,133.11,4.91Z"/><path d="M124.9,1.18a2.61,2.61,0,0,1,.22,1.7h0a23.05,23.05,0,0,1,.33,6,11.62,11.62,0,0,1-.34,1.72,1.29,1.29,0,0,1-1.12,1,1.41,1.41,0,0,1-1.36-.69,3.76,3.76,0,0,1-.57-1.49,18.81,18.81,0,0,1-.22-5.4A5.34,5.34,0,0,1,122,1.3a1.46,1.46,0,0,1,2.89-.12Z"/></g></g></svg>