<?xml version="1.0" encoding="utf-8"?>
<!-- Generator: Adobe Illustrator 22.1.0, SVG Export Plug-In . SVG Version: 6.00 Build 0)  -->
<svg version="1.1" id="Capa_1" xmlns="http://www.w3.org/2000/svg" xmlns:xlink="http://www.w3.org/1999/xlink" x="0px" y="0px"
	 viewBox="0 0 142.1 26.2" style="enable-background:new 0 0 142.1 26.2;" xml:space="preserve">
<style type="text/css">
	.st0{fill:none;}
	.st1{fill:#EE2B69;}
	.st2{font-family:'Montserrat-Black';}
	.st3{font-size:13px;}
</style>
<title>Recurso 1</title>
<g id="Capa_2_1_">
	<g id="Capa_1-2">
		<path d="M31.2,21.5v-3.3h3.5c1.3,0.1,2.4-0.7,2.8-1.9c0.3-0.8,0.4-1.6,0.4-2.4v-0.6c0-0.8-0.1-1.6-0.4-2.4
			c-0.2-0.6-0.6-1.1-1.1-1.4C35.9,9.2,35.3,9,34.6,9h-3.4V5.8h3.5c1.3,0,2.6,0.3,3.8,1c1.1,0.6,2,1.5,2.6,2.6c0.6,1.2,1,2.6,0.9,3.9
			v0.5c0,1.4-0.3,2.7-0.9,3.9c-0.6,1.1-1.5,2-2.6,2.7s-2.4,1-3.7,1L31.2,21.5z M33.6,21.5h-4V5.8h4V21.5z"/>
		<path d="M45.7,5c0.6,0,1.1,0.2,1.5,0.5c0.4,0.4,0.6,0.9,0.6,1.4s-0.2,1-0.6,1.4c-0.4,0.4-1,0.6-1.5,0.5c-0.6,0-1.1-0.2-1.5-0.5
			c-0.4-0.4-0.6-0.9-0.6-1.4s0.2-1,0.6-1.4C44.6,5.2,45.1,5,45.7,5z M47.6,21.5h-3.9V9.9h3.9V21.5z"/>
		<path d="M53.6,21.5h-3.9V9.9h3.6l0.3,3.1C53.6,13,53.6,21.5,53.6,21.5z M56.9,13.5l-0.6-0.1h-0.6c-0.5,0-0.9,0.1-1.3,0.2
			c-0.3,0.1-0.6,0.3-0.7,0.6c-0.2,0.4-0.2,0.8-0.2,1.2l-0.7-0.6c0-0.9,0.1-1.9,0.4-2.8c0.2-0.7,0.6-1.3,1.1-1.8s1.1-0.7,1.8-0.7h0.5
			c0.2,0,0.3,0,0.5,0.1L56.9,13.5z"/>
		<path d="M63.9,21.7c-1.1,0-2.3-0.2-3.3-0.8c-0.9-0.5-1.6-1.2-2.1-2.1C58,18,57.8,17,57.8,16.1v-0.4c0-1,0.2-2.1,0.6-3
			c0.4-0.9,1-1.7,1.9-2.2c0.9-0.6,2-0.9,3.2-0.8c1,0,2,0.2,2.9,0.7c0.8,0.5,1.4,1.2,1.8,2c0.5,1,0.7,2,0.7,3.1V17h-9.6v-2.5H65v-0.3
			c0-0.3,0-0.6-0.2-0.8c-0.1-0.2-0.3-0.4-0.6-0.5c-0.3-0.1-0.6-0.2-0.9-0.1c-0.4,0-0.8,0.1-1.1,0.4c-0.3,0.3-0.4,0.7-0.5,1.1
			c-0.1,0.5-0.1,0.9-0.1,1.4v0.4c0,0.5,0.1,0.9,0.4,1.4c0.2,0.4,0.5,0.7,0.8,0.9c0.4,0.2,0.9,0.3,1.3,0.3c0.5,0,1-0.1,1.4-0.3
			c0.5-0.2,0.9-0.5,1.2-0.9l1.7,2.2c-0.5,0.6-1.1,1.1-1.7,1.4C65.9,21.5,64.9,21.7,63.9,21.7z"/>
		<path d="M75.3,21.7c-1.1,0-2.1-0.2-3.1-0.8c-0.8-0.5-1.4-1.2-1.8-2.1s-0.6-2-0.6-3v-0.2c0-1,0.2-2.1,0.6-3c0.4-0.9,1-1.6,1.8-2.1
			c0.9-0.5,1.9-0.8,3-0.8c0.9,0,1.8,0.2,2.6,0.6c0.7,0.3,1.4,0.9,1.8,1.6c0.4,0.8,0.7,1.7,0.6,2.6h-3.6c0-0.3,0-0.6-0.1-0.8
			c-0.1-0.3-0.2-0.5-0.4-0.7c-0.3-0.2-0.6-0.2-0.8-0.2c-0.4,0-0.7,0.1-1,0.4c-0.2,0.3-0.4,0.6-0.4,1c-0.1,0.5-0.1,0.9-0.1,1.4v0.2
			c0,0.5,0,1,0.1,1.4c0,0.4,0.2,0.7,0.4,1c0.3,0.3,0.6,0.4,1,0.4c0.3,0,0.5,0,0.8-0.2c0.2-0.1,0.4-0.3,0.5-0.5s0.2-0.5,0.2-0.8h3.6
			c0,0.8-0.2,1.7-0.6,2.4c-0.4,0.7-1.1,1.2-1.8,1.6C77,21.5,76.1,21.7,75.3,21.7z"/>
		<path d="M88,12.6h-7.2V9.9H88V12.6z M86.1,7v10.5c0,0.2,0,0.4,0.1,0.6c0.1,0.1,0.2,0.3,0.3,0.3c0.2,0.1,0.5,0.1,0.7,0.1h0.5
			c0.1,0,0.3,0,0.4,0v2.9c-0.3,0.1-0.7,0.2-1,0.3c-0.4,0.1-0.7,0.1-1.1,0.1c-0.7,0-1.4-0.2-2-0.5c-0.5-0.2-1-0.7-1.3-1.2
			c-0.3-0.7-0.5-1.4-0.4-2.1V7H86.1z"/>
		<path d="M88.6,15.6c0-1,0.2-2.1,0.7-3c0.4-0.9,1.1-1.6,1.9-2.1c0.9-0.5,2-0.8,3.1-0.8s2.2,0.2,3.1,0.8c0.8,0.5,1.5,1.2,1.9,2.1
			c0.4,0.9,0.7,2,0.6,3v0.2c0,1-0.2,2.1-0.6,3s-1.1,1.6-1.9,2.1c-1.9,1-4.3,1-6.2,0c-0.8-0.5-1.5-1.2-1.9-2.1s-0.7-2-0.7-3V15.6z
			 M92.5,15.8c0,0.5,0,1,0.1,1.4c0.1,0.4,0.3,0.7,0.5,1c0.7,0.5,1.5,0.5,2.2,0c0.3-0.3,0.5-0.6,0.5-1c0.1-0.5,0.2-1,0.2-1.4v-0.2
			c0-0.5,0-0.9-0.2-1.4c-0.1-0.4-0.3-0.7-0.5-1c-0.3-0.3-0.7-0.4-1.1-0.4s-0.8,0.1-1.1,0.4c-0.3,0.3-0.4,0.6-0.5,1
			c-0.1,0.5-0.1,0.9-0.1,1.4V15.8z"/>
		<path d="M105.3,21.5h-3.9V9.9h3.6l0.3,3.1V21.5z M108.6,13.5H108h-0.6c-0.5,0-0.9,0.1-1.3,0.2c-0.3,0.1-0.6,0.3-0.7,0.6
			c-0.2,0.4-0.2,0.8-0.2,1.2l-0.7-0.6c0-0.9,0.1-1.9,0.4-2.8c0.2-0.7,0.6-1.4,1.2-1.9c0.5-0.4,1.1-0.7,1.7-0.7h0.5
			c0.2,0,0.3,0,0.5,0.1L108.6,13.5z"/>
		<path d="M116.3,9.9h4.2l-4.6,13.3c-0.1,0.3-0.3,0.6-0.4,1c-0.2,0.4-0.4,0.7-0.7,1c-0.3,0.3-0.7,0.6-1.1,0.8
			c-0.5,0.2-1.1,0.3-1.7,0.3c-0.2,0-0.4,0-0.6,0c-0.1,0-0.3,0-0.4-0.1l-0.6-0.1v-2.9h0.4c0.4,0,0.8,0,1.2-0.2
			c0.2-0.1,0.4-0.3,0.5-0.6l0.9-2.2L116.3,9.9z M115.1,17.7l0.4,4.3l-2.6-0.1l-4.1-12h4.1L115.1,17.7z"/>
		<path d="M142,11c0.3,0.6,0,1.3-1.1,2.2s-2.4,1.9-3.6,2.8c-0.5,0.6-1.2,1-2,1.1c-0.8,0.2-1.6-0.2-1.8-1c-0.1-0.4-0.1-0.7,0.1-1.1
			c0.2-0.7,0.7-1.3,1.4-1.6c1.3-1.1,2.8-2,4.4-2.6C140.6,10.3,141.6,10.4,142,11z"/>
		<path d="M133.1,4.9c-0.4,0.2-0.7,0.5-1,0.8c-1.3,1.4-2.4,3-3.4,4.6c-0.2,0.3-0.3,0.7-0.4,1.1c-0.2,0.5,0,1.1,0.5,1.4
			c0.5,0.3,1.1,0.3,1.5-0.1c0.4-0.2,0.7-0.5,0.9-0.9c0.5-0.7,0.9-1.4,1.2-1.8c0.6-1.1,1.1-1.8,1.5-2.6c0.2-0.5,0.4-1,0.6-1.5
			c0.2-0.4,0.1-0.8-0.3-1.1C133.9,4.7,133.4,4.7,133.1,4.9z"/>
		<path d="M124.9,1.2c0.3,0.5,0.3,1.1,0.2,1.7l0,0c0.4,2,0.5,4,0.3,6c-0.1,0.6-0.2,1.2-0.3,1.7c-0.1,0.5-0.6,0.9-1.1,1
			s-1.1-0.2-1.4-0.7s-0.5-1-0.6-1.5c-0.3-1.8-0.4-3.6-0.2-5.4c-0.2-0.9-0.1-1.8,0.2-2.7c0.1-0.8,0.8-1.4,1.6-1.3
			C124.2,0,124.8,0.5,124.9,1.2L124.9,1.2z"/>
		<rect y="4.9" class="st0" width="28" height="22"/>
		<text transform="matrix(1 0 0 1 0 14.5558)" class="st1 st2 st3">ETR</text>
	</g>
</g>
</svg>
